<svg width="256" height="256" viewBox="0 0 256 256" fill="none" xmlns="http://www.w3.org/2000/svg">
  <g stroke="#0A0A0A" stroke-width="8" stroke-linecap="round" stroke-linejoin="round">
    <path d="M40 114c0-42 37-74 88-74s88 32 88 74"/>
    <path d="M62 113c-14 18-20 44-13 67 4 15 13 27 25 34"/>
    <path d="M194 113c14 18 20 44 13 67-4 15-13 27-25 34"/>
    <path d="M97 151c8-8 17-12 31-12 12 0 21 3 29 10"/>
    <path d="M92 175c10 11 22 17 36 17 13 0 25-6 35-16"/>
    <path d="M114 128c6-4 14-6 22-5 8 1 15 4 21 9"/>
    <path d="M98 125c-6-4-13-6-20-6-7 0-13 2-19 6"/>
    <path d="M92 139c8 1 14-1 18-7"/>
    <path d="M171 138c9 0 15-4 18-11"/>
    <path d="M114 194c-1 18 6 30 21 36"/>
    <path d="M149 194c2 17-4 30-17 36"/>
    <path d="M76 160c0 25 14 49 37 61"/>
    <path d="M180 160c0 25-14 49-37 61"/>
    <path d="M49 133c-10-11-12-30-5-44 7-14 20-22 33-20"/>
    <path d="M207 133c10-11 12-30 5-44-7-14-20-22-33-20"/>
    <path d="M93 54c7-10 19-16 35-16 16 0 28 6 35 16"/>
  </g>
  <g fill="#0A0A0A">
    <ellipse cx="173" cy="133" rx="6" ry="10"/>
    <path d="M114 86c-13 4-22 13-29 24" stroke="#0A0A0A" stroke-width="7" stroke-linecap="round"/>
    <path d="M98 86c-13 6-22 16-27 29" stroke="#0A0A0A" stroke-width="7" stroke-linecap="round"/>
    <path d="M84 89c-10 7-17 16-21 28" stroke="#0A0A0A" stroke-width="7" stroke-linecap="round"/>
    <path d="M162 86c13 4 22 13 29 24" stroke="#0A0A0A" stroke-width="7" stroke-linecap="round"/>
    <path d="M176 89c10 7 17 16 21 28" stroke="#0A0A0A" stroke-width="7" stroke-linecap="round"/>
  </g>
  <path d="M74 75c-13 9-23 22-28 37" stroke="#0A0A0A" stroke-width="9" stroke-linecap="round"/>
  <path d="M67 96c-12 8-20 18-24 31" stroke="#0A0A0A" stroke-width="9" stroke-linecap="round"/>
  <path d="M62 118c-10 8-16 17-18 28" stroke="#0A0A0A" stroke-width="9" stroke-linecap="round"/>
		<path d="M171 138c9 0 15-4 18-11"/>
		<path d="M114 194c-1 18 6 30 21 36"/>
		<path d="M149 194c2 17-4 30-17 36"/>
		<path d="M76 160c0 25 14 49 37 61"/>
		<path d="M180 160c0 25-14 49-37 61"/>
		<path d="M49 133c-10-11-12-30-5-44 7-14 20-22 33-20"/>
		<path d="M207 133c10-11 12-30 5-44-7-14-20-22-33-20"/>
		<path d="M93 54c7-10 19-16 35-16 16 0 28 6 35 16"/>
	</g>
	<g fill="#0A0A0A">
		<ellipse cx="173" cy="133" rx="6" ry="10"/>
		<path d="M114 86c-13 4-22 13-29 24" stroke="#0A0A0A" stroke-width="7" stroke-linecap="round"/>
		<path d="M98 86c-13 6-22 16-27 29" stroke="#0A0A0A" stroke-width="7" stroke-linecap="round"/>
		<path d="M84 89c-10 7-17 16-21 28" stroke="#0A0A0A" stroke-width="7" stroke-linecap="round"/>
		<path d="M162 86c13 4 22 13 29 24" stroke="#0A0A0A" stroke-width="7" stroke-linecap="round"/>
		<path d="M176 89c10 7 17 16 21 28" stroke="#0A0A0A" stroke-width="7" stroke-linecap="round"/>
	</g>
	<path d="M74 75c-13 9-23 22-28 37" stroke="#0A0A0A" stroke-width="9" stroke-linecap="round"/>
	<path d="M67 96c-12 8-20 18-24 31" stroke="#0A0A0A" stroke-width="9" stroke-linecap="round"/>
	<path d="M62 118c-10 8-16 17-18 28" stroke="#0A0A0A" stroke-width="9" stroke-linecap="round"/>
</svg>