<svg width="128" height="128" viewBox="0 0 128 128" fill="none" xmlns="http://www.w3.org/2000/svg">
  <circle cx="64" cy="64" r="58" stroke="#111111" stroke-width="6"/>
  <path d="M44 48c0-10 8-18 20-18s20 8 20 18" stroke="#111111" stroke-width="6" stroke-linecap="round"/>
  <path d="M40 86c4-14 15-24 24-24s20 10 24 24" stroke="#111111" stroke-width="6" stroke-linecap="round"/>
  <circle cx="54" cy="56" r="4" fill="#111111"/>
  <circle cx="74" cy="56" r="4" fill="#111111"/>
  <path d="M54 72c2.8 3.5 6.2 5 10 5s7.2-1.5 10-5" stroke="#111111" stroke-width="5" stroke-linecap="round"/>
  <path d="M28 58c0-9 5-17 12-22" stroke="#111111" stroke-width="6" stroke-linecap="round"/>
  <path d="M100 58c0-9-5-17-12-22" stroke="#111111" stroke-width="6" stroke-linecap="round"/>
</svg>
